<?xml version="1.0" encoding="utf-8"?>
<!-- Generator: Adobe Illustrator 24.0.1, SVG Export Plug-In . SVG Version: 6.00 Build 0)  -->
<svg version="1.1" id="Layer_1" xmlns="http://www.w3.org/2000/svg" xmlns:xlink="http://www.w3.org/1999/xlink" x="0px" y="0px"
	 width="900px" height="600px" viewBox="0 0 900 600" style="enable-background:new 0 0 900 600;" xml:space="preserve">
<style type="text/css">
	.st0{fill:none;}
	.st1{fill:url(#SVGID_1_);}
	.st2{fill:#FFF7F3;stroke:#1A1A1A;stroke-width:1.027;stroke-miterlimit:10;}
	.st3{fill:#E1E4E5;stroke:#1A1A1A;stroke-width:1.027;stroke-miterlimit:10;}
	.st4{fill:#29F3AF;stroke:#1A1A1A;stroke-width:1.027;stroke-miterlimit:10;}
	.st5{fill:#FF7B02;stroke:#1A1A1A;stroke-width:1.027;stroke-miterlimit:10;}
	.st6{fill:#A42A2A;stroke:#1A1A1A;stroke-width:1.027;stroke-miterlimit:10;}
	.st7{fill-rule:evenodd;clip-rule:evenodd;fill:#FF7B02;stroke:#1A1A1A;stroke-width:1.027;stroke-miterlimit:10;}
</style>
<path class="st0" d="M-49.1,0H975.2v600H-49.1V0z"/>
<linearGradient id="SVGID_1_" gradientUnits="userSpaceOnUse" x1="630.5086" y1="210.754" x2="510.9186" y2="748.141" gradientTransform="matrix(1 0 0 -1 0 602)">
	<stop  offset="0" style="stop-color:#FFFFFF"/>
	<stop  offset="1" style="stop-color:#EEEEEE"/>
</linearGradient>
<path class="st1" d="M721.2,236c-13.4,23.9-42.8,27.2-89.9,22.7c-35.4-3.4-67.7-6.1-103.1-25.4c-24.8-13.5-44.4-31.8-58.7-49.5
	c-15.5-19.2-37.2-41.2-26.6-63c14.6-29.9,99-55.2,180.9-13.9C713.8,152.2,734.3,212.6,721.2,236L721.2,236z"/>
<path class="st2" d="M812.2,286.5c-25.3,12.5-58.8-3.6-58.8-3.6s7.5-36.4,32.7-49c25.3-12.5,58.8,3.6,58.8,3.6
	S837.5,274,812.2,286.5L812.2,286.5z"/>
<path class="st2" d="M94.3,378.2c33,19.8,80.4,1.5,80.4,1.5s-6.2-50.4-39.2-70.2C102.4,289.7,55,308,55,308S61.2,358.4,94.3,378.2z"
	/>
<circle class="st3" cx="762.5" cy="202.5" r="13.8"/>
<circle class="st4" cx="242.7" cy="280.7" r="15.5"/>
<circle class="st5" cx="138.7" cy="189.4" r="12.9"/>
<circle class="st4" cx="644.1" cy="256.7" r="6"/>
<circle class="st3" cx="679" cy="526.1" r="7.8"/>
<circle class="st3" cx="136.3" cy="445.5" r="11.2"/>
<circle class="st3" cx="266" cy="159" r="8.5"/>
<circle class="st3" cx="680.4" cy="160.6" r="9.5"/>
<circle class="st3" cx="162" cy="268.3" r="8.5"/>
<circle class="st3" cx="378.4" cy="87.4" r="11.3"/>
<ellipse class="st3" cx="739.9" cy="377.2" rx="8.7" ry="7"/>
<circle class="st6" cx="575.4" cy="86.9" r="17.7"/>
<path class="st6" d="M806,329h0.2c1.4,19.1,15.6,19.4,15.6,19.4s-15.7,0.3-15.7,22.4c0-22.1-15.7-22.4-15.7-22.4
	S804.7,348.1,806,329z M232.7,515h0.2c1.2,17.3,13.8,17.6,13.8,17.6s-13.9,0.3-13.9,20.3c0-20-13.9-20.3-13.9-20.3
	S231.5,532.4,232.7,515z"/>
<path class="st4" d="M534.4,427.4c8.5,0.3,17.2-2.9,23.7-9.4c12.6-12.6,12.6-32.9,0-45.5c-12.6-12.6-32.9-12.6-45.5,0
	c-5.4,5.4-8.7,12.6-9.3,20.2c-0.5,6.7-1.9,13.8-6.7,18.5c-3.7,3.7-9.7,3.7-13.4,0l-27.4-27.4c-6.3-6.3-16.5-6.3-22.7,0l-25.7,25.7
	c-5.2,5.2-4.2,10.3,3.1,10.4c8.2,0,16.3,3.2,22.5,9.4c12.6,12.6,12.6,32.9,0,45.5s-32.9,12.6-45.5,0c-5.5-5.5-8.9-12.9-9.4-20.7
	c-0.1-1.2,0.1-2.4,0.3-3.6c1.1-6.6-5.4-6.7-10.1-2l-14.9,14.9c-6.3,6.3-6.3,16.5,0,22.7l90.9,90.9c6.3,6.3,16.5,6.3,22.7,0
	l13.6-13.6l66-66c6.3-6.3,6.3-16.5,0-22.7l-25-25c-5-5-5-13.2,0-18.3C525.1,428.4,529.8,427.3,534.4,427.4L534.4,427.4z
	 M358.8,172.1c-8.5-0.3-17.2,2.9-23.7,9.4c-12.6,12.6-12.6,32.9,0,45.5s32.9,12.6,45.5,0c5.4-5.4,8.7-12.6,9.3-20.2
	c0.5-6.7,1.9-13.8,6.7-18.5c3.7-3.7,9.7-3.7,13.4,0l27.4,27.4c6.3,6.3,16.5,6.3,22.7,0l25.7-25.7c5.2-5.2,4.2-10.3-3.1-10.4
	c-8.2,0-16.3-3.2-22.5-9.4c-12.6-12.6-12.6-32.9,0-45.5s32.9-12.6,45.5,0c5.5,5.5,8.9,12.9,9.4,20.7c0.1,1.2-0.1,2.4-0.3,3.6
	c-1.1,6.6,5.4,6.7,10.1,2l14.9-14.9c6.3-6.3,6.3-16.5,0-22.7l-90.9-90.9c-6.3-6.3-16.5-6.3-22.7,0L412.4,36l-66,66
	c-6.3,6.3-6.3,16.5,0,22.7l25,25c5,5,5,13.2,0,18.3C368.2,171.1,363.4,172.2,358.8,172.1L358.8,172.1z M566.9,220.8
	c0.3-8.5-2.9-17.2-9.4-23.7c-12.6-12.6-32.9-12.6-45.5,0c-12.6,12.6-12.6,32.9,0,45.5c5.4,5.4,12.6,8.7,20.2,9.3
	c6.7,0.5,13.8,1.9,18.5,6.7c3.7,3.7,3.7,9.7,0,13.4l-27.4,27.4c-6.3,6.3-6.3,16.5,0,22.7l25.7,25.7c5.2,5.2,10.3,4.2,10.4-3.1
	c0-8.2,3.2-16.3,9.4-22.5c12.6-12.6,32.9-12.6,45.5,0c12.6,12.6,12.6,32.9,0,45.5c-5.5,5.5-12.9,8.9-20.7,9.4
	c-1.2,0.1-2.4-0.1-3.6-0.3c-6.6-1.1-6.7,5.4-2,10.1l14.9,14.9c6.3,6.3,16.5,6.3,22.7,0l90.9-90.9c6.3-6.3,6.3-16.5,0-22.7L703,274.5
	l-66-66c-6.3-6.3-16.5-6.3-22.7,0l-25,25c-5,5-13.2,5-18.3,0C567.8,230.2,566.7,225.5,566.9,220.8L566.9,220.8z M326.4,378.6
	c-0.3,8.5,2.9,17.2,9.4,23.7c12.6,12.6,32.9,12.6,45.5,0c12.6-12.6,12.6-32.9,0-45.5c-5.4-5.4-12.6-8.7-20.2-9.3
	c-6.7-0.5-13.8-1.9-18.5-6.7c-3.7-3.7-3.7-9.7,0-13.4l27.4-27.4c6.3-6.3,6.3-16.5,0-22.7l-25.7-25.7c-5.2-5.2-10.3-4.2-10.4,3.1
	c0,8.2-3.2,16.3-9.4,22.5c-12.6,12.6-32.9,12.6-45.5,0c-12.6-12.6-12.6-32.9,0-45.5c5.5-5.5,12.9-8.9,20.7-9.4
	c1.2-0.1,2.4,0.1,3.6,0.3c6.6,1.1,6.7-5.4,2-10.1l-14.9-14.9c-6.3-6.3-16.5-6.3-22.7,0l-90.9,90.9c-6.3,6.3-6.3,16.5,0,22.7
	l13.6,13.6l66,66c6.3,6.3,16.5,6.3,22.7,0l25-25c5-5,13.2-5,18.3,0C325.4,369.3,326.5,374,326.4,378.6L326.4,378.6z"/>
<path class="st7" d="M481,303.3h-4.5c-1.1,0-2-0.9-2-2v-4.5c0-1.1,0.9-2,2-2h4.5c1.1,0,2,0.9,2,2v4.5
	C483,302.4,482.1,303.3,481,303.3C481,303.3,481,303.3,481,303.3z M465.4,303.3h-4.5c-1.1,0-2-0.9-2-2v-4.5c0-1.1,0.9-2,2-2h4.5
	c1.1,0,2,0.9,2,2v4.5C467.3,302.4,466.4,303.3,465.4,303.3z M449.7,303.3h-4.5c-1.1,0-2-0.9-2-2v-4.5c0-1.1,0.9-2,2-2h4.5
	c1.1,0,2,0.9,2,2v4.5C451.6,302.4,450.8,303.3,449.7,303.3C449.7,303.3,449.7,303.3,449.7,303.3z M434,303.3h-4.5c-1.1,0-2-0.9-2-2
	v-4.5c0-1.1,0.9-2,2-2h4.5c1.1,0,2,0.9,2,2v4.5C436,302.4,435.1,303.3,434,303.3z M418.3,303.3h-4.5c-1.1,0-2-0.9-2-2v-4.5
	c0-1.1,0.9-2,2-2h4.5c1.1,0,2,0.9,2,2v4.5C420.3,302.4,419.4,303.3,418.3,303.3z M464.8,286.2h-4.5c-1.1,0-2-0.9-2-2v-4.5
	c0-1.1,0.9-2,2-2h4.5c1.1,0,2,0.9,2,2v4.5C466.8,285.3,465.9,286.2,464.8,286.2C464.8,286.2,464.8,286.2,464.8,286.2z M449.1,286.2
	h-4.5c-1.1,0-2-0.9-2-2v-4.5c0-1.1,0.9-2,2-2h4.5c1.1,0,2,0.9,2,2v4.5C451.1,285.3,450.2,286.2,449.1,286.2
	C449.1,286.2,449.1,286.2,449.1,286.2z M433.4,286.2h-4.5c-1.1,0-2-0.9-2-2v-4.5c0-1.1,0.9-2,2-2h4.5c1.1,0,2,0.9,2,2v4.5
	C435.4,285.3,434.5,286.2,433.4,286.2z M449.7,321.6h-4.5c-1.1,0-2-0.9-2-2v-4.5c0-1.1,0.9-2,2-2h4.5c1.1,0,2,0.9,2,2v4.5
	C451.6,320.7,450.8,321.6,449.7,321.6C449.7,321.6,449.7,321.6,449.7,321.6z M465.1,321.6h-4.5c-1.1,0-2-0.9-2-2v-4.5
	c0-1.1,0.9-2,2-2h4.5c1.1,0,2,0.9,2,2v4.5C467,320.7,466.2,321.6,465.1,321.6C465.1,321.6,465.1,321.6,465.1,321.6z M434,321.6h-4.5
	c-1.1,0-2-0.9-2-2v-4.5c0-1.1,0.9-2,2-2h4.5c1.1,0,2,0.9,2,2v4.5C436,320.7,435.1,321.6,434,321.6z"/>
</svg>