<svg xmlns="http://www.w3.org/2000/svg" viewBox="0 0 378.68 126.05"><defs><style>.cls-1{fill:#f60;}.cls-2,.cls-3{fill:brown;}.cls-3{font-size:72.75px;font-family:Nunito-Bold, Nunito;font-weight:700;}.cls-4{letter-spacing:-0.01em;}.cls-5{letter-spacing:-0.08em;}</style></defs><title>aka logo (1)</title><g id="Graphic_Elements" data-name="Graphic Elements"><path class="cls-1" d="M68.08,69c8.29,9.42,18,16.54,27.28,20l.17.06,28.94-64.31a3.09,3.09,0,0,0-3.38-4.31L50.71,33.39C51.43,43.71,57.65,57.18,68.08,69Z" transform="translate(-5.75 -5.18)"/><path class="cls-2" d="M90.37,94.3C80.9,90.15,71.29,82.84,63.05,73.47c-11.37-12.92-18-27.12-19-38.87L8.29,41.14a3.1,3.1,0,0,0-1,5.69L50.87,73.45a12.45,12.45,0,0,1,5.38,6.88l15.39,48.74a3.09,3.09,0,0,0,5.77.34L92.77,95.27C92,95,91.18,94.65,90.37,94.3Z" transform="translate(-5.75 -5.18)"/><path class="cls-1" d="M92.52,89.4C83,85.25,73.43,78,65.19,68.58,45.8,46.55,40.3,20.75,52.68,9.86S89.94,7.7,109.33,29.74a86.29,86.29,0,0,1,14.79,23.09,3.35,3.35,0,0,1-6.18,2.6A79.75,79.75,0,0,0,104.3,34.17C88,15.59,66.35,6.77,57.11,14.9S53.88,45.58,70.22,64.15c8.29,9.42,18,16.54,27.28,20,8.59,3.23,15.66,3,19.91-.78,4.43-3.9,4.67-10.46,4.09-15.28a3.35,3.35,0,1,1,6.66-.8c1.09,9.07-1.15,16.57-6.32,21.12-6.2,5.45-15.68,6.17-26.7,2C94.27,90.14,93.39,89.79,92.52,89.4Z" transform="translate(-5.75 -5.18)"/><text class="cls-3" transform="translate(129.93 87.24) scale(0.99 1)">A<tspan class="cls-4" x="54.13" y="0">k</tspan><tspan x="92.76" y="0">a</tspan><tspan class="cls-5" x="132.55" y="0">T</tspan><tspan x="172.06" y="0">ek</tspan></text></g></svg>